<svg width="64" height="64" viewBox="0 0 64 64" fill="none" xmlns="http://www.w3.org/2000/svg">
<rect width="64" height="64" rx="6" fill="white"/>
<path fill-rule="evenodd" clip-rule="evenodd" d="M24 13C24 16.866 20.866 20 17 20C13.134 20 10 16.866 10 13C10 9.13401 13.134 6 17 6C20.866 6 24 9.13401 24 13ZM54 51C54 54.866 50.866 58 47 58C43.134 58 40 54.866 40 51C40 47.134 43.134 44 47 44C50.866 44 54 47.134 54 51ZM32 39C35.866 39 39 35.866 39 32C39 28.134 35.866 25 32 25C28.134 25 25 28.134 25 32C25 35.866 28.134 39 32 39Z" fill="url(#paint0_linear_848_286)"/>
<defs>
<linearGradient id="paint0_linear_848_286" x1="10" y1="10" x2="54" y2="54" gradientUnits="userSpaceOnUse">
<stop stop-color="#4D2DB7"/>
<stop offset="1" stop-color="#EC53B0"/>
</linearGradient>
</defs>
</svg>
