<svg width="64" height="64" viewBox="0 0 64 64" fill="none" xmlns="http://www.w3.org/2000/svg">
<rect width="64" height="64" rx="6" fill="white"/>
<path fill-rule="evenodd" clip-rule="evenodd" d="M17 20C20.866 20 24 16.866 24 13C24 9.13401 20.866 6 17 6C13.134 6 10 9.13401 10 13C10 16.866 13.134 20 17 20ZM47 58C50.866 58 54 54.866 54 51C54 47.134 50.866 44 47 44C43.134 44 40 47.134 40 51C40 54.866 43.134 58 47 58ZM24 51C24 54.866 20.866 58 17 58C13.134 58 10 54.866 10 51C10 47.134 13.134 44 17 44C20.866 44 24 47.134 24 51ZM17 39C20.866 39 24 35.866 24 32C24 28.134 20.866 25 17 25C13.134 25 10 28.134 10 32C10 35.866 13.134 39 17 39ZM54 32C54 35.866 50.866 39 47 39C43.134 39 40 35.866 40 32C40 28.134 43.134 25 47 25C50.866 25 54 28.134 54 32ZM47 20C50.866 20 54 16.866 54 13C54 9.13401 50.866 6 47 6C43.134 6 40 9.13401 40 13C40 16.866 43.134 20 47 20Z" fill="url(#paint0_linear_848_307)"/>
<defs>
<linearGradient id="paint0_linear_848_307" x1="10" y1="10" x2="54" y2="54" gradientUnits="userSpaceOnUse">
<stop stop-color="#4D2DB7"/>
<stop offset="1" stop-color="#EC53B0"/>
</linearGradient>
</defs>
</svg>
